<svg width="634" height="96" viewBox="0 0 634 96" fill="none" xmlns="http://www.w3.org/2000/svg">
<path d="M42.9219 27V24.5966L58.0582 3.90341V3.68182H43.5696V0.818181H61.9616V3.32386L47.098 23.9148V24.1364H62.5071V27H42.9219ZM79.0284 27.5455C76.5852 27.5455 74.4716 26.9773 72.6875 25.8409C70.9034 24.6932 69.5227 23.108 68.5455 21.0852C67.5795 19.0511 67.0966 16.7102 67.0966 14.0625C67.0966 11.4261 67.5795 9.08523 68.5455 7.03977C69.5227 4.98295 70.8693 3.375 72.5852 2.21591C74.3125 1.04545 76.3068 0.460227 78.5682 0.460227C79.9886 0.460227 81.358 0.72159 82.6761 1.24432C83.9943 1.75568 85.1761 2.54545 86.2216 3.61364C87.2784 4.67045 88.1136 6.00568 88.7273 7.61932C89.3409 9.22159 89.6477 11.1193 89.6477 13.3125V14.8125H69.1932V12.1364H86.5455C86.5455 10.4545 86.2045 8.94318 85.5227 7.60227C84.8523 6.25 83.9148 5.18182 82.7102 4.39773C81.517 3.61364 80.1364 3.22159 78.5682 3.22159C76.9091 3.22159 75.4489 3.66477 74.1875 4.55114C72.9261 5.4375 71.9375 6.60795 71.2216 8.0625C70.517 9.51705 70.1591 11.108 70.1477 12.8352V14.4375C70.1477 16.517 70.5057 18.3352 71.2216 19.892C71.9489 21.4375 72.9773 22.6364 74.3068 23.4886C75.6364 24.3409 77.2102 24.767 79.0284 24.767C80.267 24.767 81.3523 24.5739 82.2841 24.1875C83.2273 23.8011 84.017 23.2841 84.6534 22.6364C85.3011 21.9773 85.7898 21.2557 86.1193 20.4716L89 21.4091C88.6023 22.5114 87.9489 23.5284 87.0398 24.4602C86.142 25.392 85.017 26.142 83.6648 26.7102C82.3239 27.267 80.7784 27.5455 79.0284 27.5455ZM96.3338 27V0.818181H99.2827V4.84091H99.5043C100.027 3.52273 100.936 2.46023 102.232 1.65341C103.538 0.835226 105.016 0.426135 106.663 0.426135C106.913 0.426135 107.192 0.431817 107.499 0.443181C107.805 0.454545 108.061 0.465909 108.266 0.477273V3.5625C108.129 3.53977 107.891 3.50568 107.55 3.46023C107.209 3.41477 106.839 3.39204 106.442 3.39204C105.078 3.39204 103.862 3.68182 102.794 4.26136C101.737 4.82954 100.902 5.61932 100.288 6.63068C99.6747 7.64205 99.3679 8.79545 99.3679 10.0909V27H96.3338ZM122.822 27.5455C120.561 27.5455 118.561 26.9716 116.822 25.8239C115.095 24.6761 113.743 23.0909 112.766 21.0682C111.788 19.0341 111.3 16.6875 111.3 14.0284C111.3 11.3466 111.788 8.98864 112.766 6.95454C113.743 4.90909 115.095 3.31818 116.822 2.18182C118.561 1.03409 120.561 0.460227 122.822 0.460227C125.084 0.460227 127.078 1.03409 128.805 2.18182C130.533 3.32954 131.885 4.92045 132.862 6.95454C133.851 8.98864 134.345 11.3466 134.345 14.0284C134.345 16.6875 133.857 19.0341 132.879 21.0682C131.902 23.0909 130.544 24.6761 128.805 25.8239C127.078 26.9716 125.084 27.5455 122.822 27.5455ZM122.822 24.767C124.641 24.767 126.18 24.2784 127.442 23.3011C128.703 22.3239 129.658 21.0227 130.305 19.3977C130.964 17.7727 131.294 15.983 131.294 14.0284C131.294 12.0739 130.964 10.2784 130.305 8.64204C129.658 7.00568 128.703 5.69318 127.442 4.70454C126.18 3.71591 124.641 3.22159 122.822 3.22159C121.016 3.22159 119.476 3.71591 118.203 4.70454C116.942 5.69318 115.982 7.00568 115.322 8.64204C114.675 10.2784 114.351 12.0739 114.351 14.0284C114.351 15.983 114.675 17.7727 115.322 19.3977C115.982 21.0227 116.942 22.3239 118.203 23.3011C119.464 24.2784 121.004 24.767 122.822 24.767ZM11.5923 85.5455C9.25142 85.5455 7.21165 84.9602 5.47301 83.7898C3.74574 82.6193 2.40483 81.017 1.45028 78.983C0.495739 76.9489 0.0184661 74.6307 0.0184661 72.0284C0.0184661 69.4034 0.501421 67.0682 1.46733 65.0227C2.4446 62.9773 3.79688 61.375 5.52415 60.2159C7.25142 59.0455 9.2571 58.4602 11.5412 58.4602C13.2912 58.4602 14.8764 58.8011 16.2969 59.483C17.7173 60.1534 18.8878 61.1023 19.8082 62.3295C20.7401 63.5455 21.3253 64.9659 21.5639 66.5909H18.4957C18.1776 65.1136 17.4105 63.8523 16.1946 62.8068C14.9901 61.75 13.456 61.2216 11.5923 61.2216C9.92188 61.2216 8.4446 61.6761 7.16051 62.5852C5.87642 63.483 4.87074 64.7386 4.14347 66.3523C3.42756 67.9545 3.0696 69.8125 3.0696 71.9261C3.0696 74.0511 3.42188 75.9318 4.12642 77.5682C4.83097 79.1932 5.8196 80.4659 7.09233 81.3864C8.37642 82.3068 9.87642 82.767 11.5923 82.767C12.7514 82.767 13.8082 82.5511 14.7628 82.1193C15.7287 81.6761 16.5355 81.0511 17.1832 80.2443C17.8423 79.4375 18.2855 78.4773 18.5128 77.3636H21.581C21.3537 78.9432 20.7912 80.3523 19.8935 81.5909C19.0071 82.8182 17.8537 83.7841 16.4332 84.4886C15.0241 85.1932 13.4105 85.5455 11.5923 85.5455ZM38.2599 85.5455C35.9986 85.5455 33.9986 84.9716 32.2599 83.8239C30.5327 82.6761 29.1804 81.0909 28.2031 79.0682C27.2259 77.0341 26.7372 74.6875 26.7372 72.0284C26.7372 69.3466 27.2259 66.9886 28.2031 64.9545C29.1804 62.9091 30.5327 61.3182 32.2599 60.1818C33.9986 59.0341 35.9986 58.4602 38.2599 58.4602C40.5213 58.4602 42.5156 59.0341 44.2429 60.1818C45.9702 61.3295 47.3224 62.9205 48.2997 64.9545C49.2884 66.9886 49.7827 69.3466 49.7827 72.0284C49.7827 74.6875 49.294 77.0341 48.3168 79.0682C47.3395 81.0909 45.9815 82.6761 44.2429 83.8239C42.5156 84.9716 40.5213 85.5455 38.2599 85.5455ZM38.2599 82.767C40.0781 82.767 41.6179 82.2784 42.8793 81.3011C44.1406 80.3239 45.0952 79.0227 45.7429 77.3977C46.402 75.7727 46.7315 73.983 46.7315 72.0284C46.7315 70.0739 46.402 68.2784 45.7429 66.642C45.0952 65.0057 44.1406 63.6932 42.8793 62.7045C41.6179 61.7159 40.0781 61.2216 38.2599 61.2216C36.4531 61.2216 34.9134 61.7159 33.6406 62.7045C32.3793 63.6932 31.419 65.0057 30.7599 66.642C30.1122 68.2784 29.7884 70.0739 29.7884 72.0284C29.7884 73.983 30.1122 75.7727 30.7599 77.3977C31.419 79.0227 32.3793 80.3239 33.6406 81.3011C34.902 82.2784 36.4418 82.767 38.2599 82.767ZM59.4773 68.6364V85H56.4432V58.8182H59.392V62.9261H59.6648C60.2784 61.5852 61.233 60.5114 62.5284 59.7045C63.8352 58.8864 65.4489 58.4773 67.3693 58.4773C69.1307 58.4773 70.6761 58.8466 72.0057 59.5852C73.3466 60.3125 74.3864 61.3864 75.125 62.8068C75.875 64.2273 76.25 65.9716 76.25 68.0398V85H73.2159V68.2273C73.2159 66.0795 72.6136 64.3807 71.4091 63.1307C70.2159 61.8807 68.6136 61.2557 66.6023 61.2557C65.2273 61.2557 64.0057 61.5511 62.9375 62.142C61.8693 62.733 61.0227 63.5852 60.3977 64.6989C59.7841 65.8011 59.4773 67.1136 59.4773 68.6364ZM95.0128 58.8182V61.4602H82.1435V58.8182H95.0128ZM86.1662 85V54.983C86.1662 53.5739 86.4901 52.3864 87.1378 51.4205C87.7969 50.4545 88.6548 49.7216 89.7116 49.2216C90.7685 48.7216 91.8878 48.4716 93.0696 48.4716C93.8651 48.4716 94.5241 48.5398 95.0469 48.6761C95.581 48.8011 96.0014 48.9261 96.3082 49.0511L95.4219 51.7102C95.1946 51.642 94.9162 51.5625 94.5866 51.4716C94.2571 51.3807 93.8423 51.3352 93.3423 51.3352C92.0241 51.3352 91.0071 51.7045 90.2912 52.4432C89.5753 53.1818 89.2173 54.2386 89.2173 55.6136L89.2003 85H86.1662ZM101.102 85V58.8182H104.153V85H101.102ZM102.653 54.3182C102.028 54.3182 101.494 54.108 101.051 53.6875C100.608 53.2557 100.386 52.7386 100.386 52.1364C100.386 51.5341 100.608 51.0227 101.051 50.6023C101.494 50.1705 102.028 49.9545 102.653 49.9545C103.278 49.9545 103.813 50.1705 104.256 50.6023C104.699 51.0227 104.92 51.5341 104.92 52.1364C104.92 52.7386 104.699 53.2557 104.256 53.6875C103.813 54.108 103.278 54.3182 102.653 54.3182ZM122.166 95.3636C120.382 95.3636 118.82 95.1307 117.479 94.6648C116.138 94.2102 115.007 93.5852 114.087 92.7898C113.166 91.9943 112.45 91.1023 111.939 90.1136L114.428 88.4773C114.803 89.1364 115.303 89.7841 115.928 90.4205C116.564 91.0568 117.388 91.5852 118.399 92.0057C119.422 92.4261 120.678 92.6364 122.166 92.6364C124.484 92.6364 126.354 92.0568 127.774 90.8977C129.206 89.7386 129.922 87.9375 129.922 85.4943V79.5966H129.649C129.297 80.392 128.791 81.1875 128.132 81.983C127.473 82.767 126.609 83.4205 125.541 83.9432C124.484 84.4659 123.172 84.7273 121.604 84.7273C119.513 84.7273 117.655 84.2102 116.03 83.1761C114.416 82.142 113.143 80.6648 112.212 78.7443C111.291 76.8125 110.831 74.5114 110.831 71.8409C110.831 69.1932 111.28 66.8636 112.178 64.8523C113.087 62.8409 114.354 61.2727 115.979 60.1477C117.604 59.0227 119.496 58.4602 121.655 58.4602C123.257 58.4602 124.587 58.7443 125.643 59.3125C126.7 59.8693 127.547 60.5625 128.183 61.392C128.831 62.2216 129.337 63.0284 129.7 63.8125H130.007V58.8182H132.973V85.6818C132.973 87.8977 132.501 89.7216 131.558 91.1534C130.615 92.5852 129.331 93.642 127.706 94.3239C126.081 95.017 124.234 95.3636 122.166 95.3636ZM121.962 81.9489C123.643 81.9489 125.081 81.5455 126.274 80.7386C127.467 79.9205 128.382 78.75 129.018 77.2273C129.655 75.7045 129.973 73.892 129.973 71.7898C129.973 69.7443 129.661 67.9318 129.036 66.3523C128.411 64.7614 127.501 63.5114 126.308 62.6023C125.126 61.6818 123.678 61.2216 121.962 61.2216C120.212 61.2216 118.734 61.6932 117.53 62.6364C116.325 63.5795 115.416 64.8523 114.803 66.4545C114.189 68.0455 113.882 69.8239 113.882 71.7898C113.882 73.7898 114.195 75.5568 114.82 77.0909C115.445 78.6136 116.359 79.8068 117.564 80.6705C118.768 81.5227 120.234 81.9489 121.962 81.9489Z" fill="black" fill-opacity="0.5"/>
<path d="M203.683 26.0909V61H200.581L179.956 31.767H179.683V61H176.496V26.0909H179.581L200.274 55.358H200.547V26.0909H203.683ZM219.646 61.5966C218.067 61.5966 216.624 61.2898 215.317 60.6761C214.01 60.0511 212.97 59.1534 212.197 57.983C211.425 56.8011 211.038 55.3693 211.038 53.6875C211.038 52.392 211.283 51.3011 211.771 50.4148C212.26 49.5284 212.953 48.8011 213.851 48.233C214.749 47.6648 215.811 47.2159 217.038 46.8864C218.266 46.5568 219.618 46.3011 221.095 46.1193C222.561 45.9375 223.8 45.7784 224.811 45.642C225.834 45.5057 226.612 45.2898 227.146 44.9943C227.68 44.6989 227.947 44.2216 227.947 43.5625V42.9489C227.947 41.1648 227.413 39.7614 226.345 38.7386C225.288 37.7045 223.766 37.1875 221.777 37.1875C219.891 37.1875 218.351 37.6023 217.158 38.4318C215.976 39.2614 215.146 40.2386 214.669 41.3636L211.788 40.3239C212.379 38.892 213.197 37.75 214.243 36.8977C215.288 36.0341 216.459 35.4148 217.754 35.0398C219.05 34.6534 220.362 34.4602 221.692 34.4602C222.692 34.4602 223.732 34.5909 224.811 34.8523C225.902 35.1136 226.913 35.5682 227.845 36.2159C228.777 36.8523 229.533 37.7443 230.112 38.892C230.692 40.0284 230.982 41.4716 230.982 43.2216V61H227.947V56.858H227.76C227.396 57.6307 226.857 58.3807 226.141 59.108C225.425 59.8352 224.527 60.4318 223.447 60.8977C222.368 61.3636 221.101 61.5966 219.646 61.5966ZM220.055 58.8182C221.669 58.8182 223.067 58.4602 224.249 57.7443C225.43 57.0284 226.339 56.0795 226.976 54.8977C227.624 53.7045 227.947 52.392 227.947 50.9602V47.1761C227.72 47.392 227.339 47.5852 226.805 47.7557C226.283 47.9261 225.675 48.0795 224.982 48.2159C224.3 48.3409 223.618 48.4489 222.936 48.5398C222.254 48.6307 221.641 48.7102 221.095 48.7784C219.618 48.9602 218.357 49.2443 217.311 49.6307C216.266 50.017 215.464 50.5511 214.908 51.233C214.351 51.9034 214.072 52.767 214.072 53.8239C214.072 55.4148 214.641 56.6477 215.777 57.5227C216.913 58.3864 218.339 58.8182 220.055 58.8182ZM239.087 61V34.8182H242.138V61H239.087ZM236.274 30.3182C235.695 30.3182 235.189 30.1023 234.757 29.6705C234.314 29.2273 234.092 28.7159 234.092 28.1364C234.092 27.5114 234.314 26.9943 234.757 26.5852C235.189 26.1648 235.695 25.9545 236.274 25.9545C236.899 25.9545 237.416 26.1648 237.825 26.5852C238.246 26.9943 238.456 27.5114 238.456 28.1364C238.456 28.7159 238.246 29.2273 237.825 29.6705C237.416 30.1023 236.899 30.3182 236.274 30.3182ZM245.001 30.3182C244.422 30.3182 243.911 30.1023 243.467 29.6705C243.036 29.2273 242.82 28.7159 242.82 28.1364C242.82 27.5114 243.036 26.9943 243.467 26.5852C243.911 26.1648 244.422 25.9545 245.001 25.9545C245.626 25.9545 246.143 26.1648 246.553 26.5852C246.973 26.9943 247.183 27.5114 247.183 28.1364C247.183 28.7159 246.973 29.2273 246.553 29.6705C246.143 30.1023 245.626 30.3182 245.001 30.3182ZM270.429 34.8182L260.866 61H257.628L248.065 34.8182H251.355L259.128 56.9943H259.366L267.139 34.8182H270.429ZM286.013 61.5455C283.57 61.5455 281.456 60.9773 279.672 59.8409C277.888 58.6932 276.507 57.108 275.53 55.0852C274.564 53.0511 274.081 50.7102 274.081 48.0625C274.081 45.4261 274.564 43.0852 275.53 41.0398C276.507 38.983 277.854 37.375 279.57 36.2159C281.297 35.0455 283.291 34.4602 285.553 34.4602C286.973 34.4602 288.342 34.7216 289.661 35.2443C290.979 35.7557 292.161 36.5455 293.206 37.6136C294.263 38.6705 295.098 40.0057 295.712 41.6193C296.325 43.2216 296.632 45.1193 296.632 47.3125V48.8125H276.178V46.1364H293.53C293.53 44.4545 293.189 42.9432 292.507 41.6023C291.837 40.25 290.899 39.1818 289.695 38.3977C288.501 37.6136 287.121 37.2216 285.553 37.2216C283.893 37.2216 282.433 37.6648 281.172 38.5511C279.911 39.4375 278.922 40.608 278.206 42.0625C277.501 43.517 277.143 45.108 277.132 46.8352V48.4375C277.132 50.517 277.49 52.3352 278.206 53.892C278.933 55.4375 279.962 56.6364 281.291 57.4886C282.621 58.3409 284.195 58.767 286.013 58.767C287.251 58.767 288.337 58.5739 289.268 58.1875C290.212 57.8011 291.001 57.2841 291.638 56.6364C292.286 55.9773 292.774 55.2557 293.104 54.4716L295.984 55.4091C295.587 56.5114 294.933 57.5284 294.024 58.4602C293.126 59.392 292.001 60.142 290.649 60.7102C289.308 61.267 287.763 61.5455 286.013 61.5455ZM340.716 26.0909H343.903V49.2045C343.903 51.5795 343.347 53.7045 342.233 55.5795C341.119 57.4432 339.568 58.9148 337.58 59.9943C335.602 61.0625 333.301 61.5966 330.676 61.5966C328.063 61.5966 325.761 61.0568 323.773 59.9773C321.784 58.8977 320.233 57.4261 319.119 55.5625C318.006 53.6989 317.449 51.5795 317.449 49.2045V26.0909H320.636V48.983C320.636 50.8352 321.051 52.4886 321.881 53.9432C322.71 55.3864 323.875 56.5227 325.375 57.3523C326.886 58.1818 328.653 58.5966 330.676 58.5966C332.699 58.5966 334.466 58.1818 335.977 57.3523C337.489 56.5227 338.653 55.3864 339.472 53.9432C340.301 52.4886 340.716 50.8352 340.716 48.983V26.0909ZM356.355 26.0909V61H353.168V26.0909H356.355Z" fill="black"/>
<path d="M398.17 37.3636V39.3452H388.518V37.3636H398.17ZM391.535 57V34.4872C391.535 33.4304 391.778 32.5398 392.263 31.8153C392.758 31.0909 393.401 30.5412 394.194 30.1662C394.987 29.7912 395.826 29.6037 396.712 29.6037C397.309 29.6037 397.803 29.6548 398.195 29.7571C398.596 29.8509 398.911 29.9446 399.141 30.0384L398.477 32.0327C398.306 31.9815 398.097 31.9219 397.85 31.8537C397.603 31.7855 397.292 31.7514 396.917 31.7514C395.928 31.7514 395.165 32.0284 394.629 32.5824C394.092 33.1364 393.823 33.929 393.823 34.9602L393.81 57H391.535ZM409.535 57.4091C407.839 57.4091 406.339 56.9787 405.035 56.1179C403.739 55.2571 402.725 54.0682 401.992 52.5511C401.259 51.0256 400.893 49.2656 400.893 47.2713C400.893 45.2599 401.259 43.4915 401.992 41.9659C402.725 40.4318 403.739 39.2386 405.035 38.3864C406.339 37.5256 407.839 37.0952 409.535 37.0952C411.231 37.0952 412.727 37.5256 414.022 38.3864C415.317 39.2472 416.332 40.4403 417.065 41.9659C417.806 43.4915 418.177 45.2599 418.177 47.2713C418.177 49.2656 417.81 51.0256 417.077 52.5511C416.344 54.0682 415.326 55.2571 414.022 56.1179C412.727 56.9787 411.231 57.4091 409.535 57.4091ZM409.535 55.3253C410.898 55.3253 412.053 54.9588 412.999 54.2259C413.945 53.4929 414.661 52.517 415.147 51.2983C415.641 50.0795 415.888 48.7372 415.888 47.2713C415.888 45.8054 415.641 44.4588 415.147 43.2315C414.661 42.0043 413.945 41.0199 412.999 40.2784C412.053 39.5369 410.898 39.1662 409.535 39.1662C408.18 39.1662 407.025 39.5369 406.07 40.2784C405.124 41.0199 404.404 42.0043 403.91 43.2315C403.424 44.4588 403.181 45.8054 403.181 47.2713C403.181 48.7372 403.424 50.0795 403.91 51.2983C404.404 52.517 405.124 53.4929 406.07 54.2259C407.016 54.9588 408.171 55.3253 409.535 55.3253ZM423.172 57V37.3636H425.384V40.3807H425.55C425.942 39.392 426.624 38.5952 427.596 37.9901C428.576 37.3764 429.684 37.0696 430.919 37.0696C431.107 37.0696 431.316 37.0739 431.546 37.0824C431.776 37.0909 431.968 37.0994 432.121 37.108V39.4219C432.019 39.4048 431.84 39.3793 431.584 39.3452C431.328 39.3111 431.051 39.294 430.753 39.294C429.73 39.294 428.819 39.5114 428.017 39.946C427.225 40.3722 426.598 40.9645 426.138 41.723C425.678 42.4815 425.448 43.3466 425.448 44.3182V57H423.172Z" fill="black" fill-opacity="0.5"/>
<path d="M451.071 39.6364V56H448.037V29.8182H450.986V33.9261H451.259C451.872 32.5852 452.827 31.5114 454.122 30.7045C455.429 29.8864 457.043 29.4773 458.963 29.4773C460.724 29.4773 462.27 29.8466 463.599 30.5852C464.94 31.3125 465.98 32.3864 466.719 33.8068C467.469 35.2273 467.844 36.9716 467.844 39.0398V56H464.81V39.2273C464.81 37.0795 464.207 35.3807 463.003 34.1307C461.81 32.8807 460.207 32.2557 458.196 32.2557C456.821 32.2557 455.599 32.5511 454.531 33.142C453.463 33.733 452.616 34.5852 451.991 35.6989C451.378 36.8011 451.071 38.1136 451.071 39.6364ZM492.47 45.9943V29.8182H495.504V56H492.47V51.6534H492.232C491.618 52.9943 490.646 54.1136 489.317 55.0114C487.987 55.8977 486.362 56.3409 484.442 56.3409C482.771 56.3409 481.288 55.9773 479.993 55.25C478.697 54.5114 477.68 53.4318 476.942 52.0114C476.203 50.5909 475.834 48.8466 475.834 46.7784V29.8182H478.868V46.5909C478.868 48.6364 479.47 50.2841 480.675 51.5341C481.879 52.7727 483.425 53.392 485.311 53.392C486.493 53.392 487.629 53.108 488.72 52.5398C489.811 51.9716 490.709 51.142 491.413 50.0511C492.118 48.9489 492.47 47.5966 492.47 45.9943ZM505.412 29.8182L512.162 40.983L518.912 29.8182H522.44L514.02 42.9091L522.44 56H518.912L512.162 45.1932L505.412 56H501.901L510.219 42.9091L501.901 29.8182H505.412ZM539.115 29.8182V32.4602H526.621V29.8182H539.115ZM530.524 23.5455H533.575V49.1648C533.575 50.2557 533.763 51.1136 534.138 51.7386C534.513 52.3523 535.001 52.7898 535.604 53.0511C536.206 53.3011 536.848 53.4261 537.53 53.4261C537.928 53.4261 538.268 53.4034 538.553 53.358C538.837 53.3011 539.087 53.2443 539.303 53.1875L539.95 55.9318C539.655 56.0455 539.291 56.1477 538.859 56.2386C538.428 56.3409 537.893 56.392 537.257 56.392C536.143 56.392 535.07 56.1477 534.036 55.6591C533.013 55.1705 532.172 54.4432 531.513 53.4773C530.854 52.5114 530.524 51.3125 530.524 49.8807V23.5455Z" fill="black" fill-opacity="0.8"/>
<path fill-rule="evenodd" clip-rule="evenodd" d="M597.7 21.675C596.05 18.9938 592.131 18.9938 590.481 21.675L572.744 51.9937C571.094 54.675 573.156 58.1812 576.456 58.1812H590.275C588.831 56.9437 588.419 54.8812 589.45 53.025L602.856 30.1312L597.7 21.675Z" fill="#80EEC0"/>
<path d="M608.837 28.4813C610.075 26.2125 613.581 26.2125 614.819 28.4813L629.463 53.2313C630.7 55.5 629.05 58.3875 626.369 58.3875H597.288C594.606 58.3875 592.956 55.5 594.194 53.2313L608.837 28.4813Z" fill="#00DC82"/>
</svg>
